<svg xmlns="http://www.w3.org/2000/svg"  viewBox="0 0 48 48" width="96px" height="96px" baseProfile="basic"><linearGradient id="dhShvFRZyxwiQeGAq-80Wa" x1="9.697" x2="38.303" y1="2.795" y2="45.206" gradientUnits="userSpaceOnUse"><stop offset="0" stop-color="#85929e"/><stop offset="1" stop-color="#6d7882"/></linearGradient><path fill="url(#dhShvFRZyxwiQeGAq-80Wa)" d="M8,43V5c0-1.1,0.9-2,2-2h28c1.1,0,2,0.9,2,2v38c0,1.1-0.9,2-2,2H10C8.9,45,8,44.1,8,43z"/><path d="M12,18c-0.552,0-1-0.449-1-1V7c0-0.551,0.448-1,1-1h24c0.552,0,1,0.449,1,1v10c0,0.551-0.448,1-1,1	H12z" opacity=".05"/><path d="M12,17.5c-0.276,0-0.5-0.224-0.5-0.5V7c0-0.276,0.224-0.5,0.5-0.5h24c0.276,0,0.5,0.224,0.5,0.5v10	c0,0.276-0.224,0.5-0.5,0.5H12z" opacity=".07"/><path d="M12,30c-0.552,0-1-0.449-1-1V19c0-0.551,0.448-1,1-1h24c0.552,0,1,0.449,1,1v10c0,0.551-0.448,1-1,1	H12z" opacity=".05"/><path d="M12,29.5c-0.276,0-0.5-0.224-0.5-0.5V19c0-0.276,0.224-0.5,0.5-0.5h24c0.276,0,0.5,0.224,0.5,0.5v10	c0,0.276-0.224,0.5-0.5,0.5H12z" opacity=".07"/><path d="M12,42c-0.552,0-1-0.449-1-1V31c0-0.551,0.448-1,1-1h24c0.552,0,1,0.449,1,1v10c0,0.551-0.448,1-1,1	H12z" opacity=".05"/><path d="M12,41.5c-0.276,0-0.5-0.224-0.5-0.5V31c0-0.276,0.224-0.5,0.5-0.5h24c0.276,0,0.5,0.224,0.5,0.5v10	c0,0.276-0.224,0.5-0.5,0.5H12z" opacity=".07"/><path fill="#cad2d9" d="M12,17V7h24v10H12z"/><rect width="24" height="10" x="12" y="19" fill="#cad2d9"/><path fill="#cad2d9" d="M12,41V31h24v10H12z"/><path d="M20,38c-0.552,0-1-0.449-1-1v-2c0-0.551,0.448-1,1-1h8c0.552,0,1,0.449,1,1v2c0,0.551-0.448,1-1,1H20	z" opacity=".05"/><path d="M20,37.5c-0.276,0-0.5-0.224-0.5-0.5v-2c0-0.276,0.224-0.5,0.5-0.5h8c0.276,0,0.5,0.224,0.5,0.5v2	c0,0.276-0.224,0.5-0.5,0.5H20z" opacity=".07"/><path d="M20,26c-0.552,0-1-0.449-1-1v-2c0-0.551,0.448-1,1-1h8c0.552,0,1,0.449,1,1v2c0,0.551-0.448,1-1,1H20	z" opacity=".05"/><path d="M20,25.5c-0.276,0-0.5-0.224-0.5-0.5v-2c0-0.276,0.224-0.5,0.5-0.5h8c0.276,0,0.5,0.224,0.5,0.5v2	c0,0.276-0.224,0.5-0.5,0.5H20z" opacity=".07"/><path d="M20,14c-0.552,0-1-0.449-1-1v-2c0-0.551,0.448-1,1-1h8c0.552,0,1,0.449,1,1v2c0,0.551-0.448,1-1,1H20	z" opacity=".05"/><path d="M20,13.5c-0.276,0-0.5-0.224-0.5-0.5v-2c0-0.276,0.224-0.5,0.5-0.5h8c0.276,0,0.5,0.224,0.5,0.5v2	c0,0.276-0.224,0.5-0.5,0.5H20z" opacity=".07"/><linearGradient id="dhShvFRZyxwiQeGAq-80Wb" x1="22.239" x2="29.848" y1="32.95" y2="46.128" gradientUnits="userSpaceOnUse"><stop offset="0" stop-color="#6d7882"/><stop offset="1" stop-color="#45494d"/></linearGradient><rect width="8" height="2" x="20" y="35" fill="url(#dhShvFRZyxwiQeGAq-80Wb)"/><linearGradient id="dhShvFRZyxwiQeGAq-80Wc" x1="22.239" x2="29.848" y1="20.95" y2="34.128" gradientUnits="userSpaceOnUse"><stop offset="0" stop-color="#6d7882"/><stop offset="1" stop-color="#45494d"/></linearGradient><rect width="8" height="2" x="20" y="23" fill="url(#dhShvFRZyxwiQeGAq-80Wc)"/><linearGradient id="dhShvFRZyxwiQeGAq-80Wd" x1="22.239" x2="29.848" y1="8.95" y2="22.128" gradientUnits="userSpaceOnUse"><stop offset="0" stop-color="#6d7882"/><stop offset="1" stop-color="#45494d"/></linearGradient><rect width="8" height="2" x="20" y="11" fill="url(#dhShvFRZyxwiQeGAq-80Wd)"/><linearGradient id="dhShvFRZyxwiQeGAq-80We" x1="-1108" x2="-1108" y1="1177" y2="1179" gradientTransform="rotate(180 -547 612)" gradientUnits="userSpaceOnUse"><stop offset="0" stop-color="#6d7882"/><stop offset="1" stop-color="#45494d"/></linearGradient><path fill="url(#dhShvFRZyxwiQeGAq-80We)" d="M12,45h4v1c0,0.552-0.448,1-1,1h-2c-0.552,0-1-0.448-1-1V45z"/><linearGradient id="dhShvFRZyxwiQeGAq-80Wf" x1="-1128" x2="-1128" y1="1177" y2="1179" gradientTransform="rotate(180 -547 612)" gradientUnits="userSpaceOnUse"><stop offset="0" stop-color="#6d7882"/><stop offset="1" stop-color="#45494d"/></linearGradient><path fill="url(#dhShvFRZyxwiQeGAq-80Wf)" d="M32,45h4v1c0,0.552-0.448,1-1,1h-2c-0.552,0-1-0.448-1-1V45z"/></svg>