<svg xmlns="http://www.w3.org/2000/svg"  viewBox="0 0 32 32" width="64px" height="64px"><circle cx="28" cy="6" r="3" fill="#68c7d3"/><circle cx="16" cy="6" r="3" fill="#68c7d3"/><path fill="#30acc2" d="M14,31H10.38c-9,0-13.77-12.82-3.88-19,3.28-2,3.35-7,0-7A2.5,2.5,0,0,0,4,7.5V8H2V7.5A4.51,4.51,0,0,1,6.5,3C12,3,12.56,10.58,7.56,13.7-.37,18.66,3,29,10.38,29H14Z"/><path fill="#a1d8df" d="M29,29.84A1.16,1.16,0,0,1,27.84,31H14a3,3,0,0,1-3-3c0-4.16-.41-10.67,6-16h8c.35,5.65.15,2.43,1,15.33C26,28.86,29,28.08,29,29.84Z"/><path fill="#68c7d3" d="M23,31H21a2,2,0,0,0-2-2H18V28a3,3,0,0,0-3-3V23a5,5,0,0,1,4.92,4.11A4,4,0,0,1,23,31Z"/><path fill="#68c7d3" d="M24.78,31H21.33C20.7,30,20.87,30.31,20,19.08l2-.16.78,10.23A2,2,0,0,0,24.78,31Z"/><path fill="#68c7d3" d="M25.28,16.54c-3.23,1-7.83.55-10.39-2.43A16.18,16.18,0,0,1,17,12h8Z"/><path fill="#a1d8df" d="M27.93,6.1a6,6,0,0,0-11.86,0,2.27,2.27,0,0,1-.46,1C13.85,9.47,15.71,15,22,15c5,0,7-3.24,7-6C29,7.34,28.09,7.2,27.93,6.1Z"/><path fill="#d1e6e9" d="M22,4.78a3,3,0,0,0-4.76,3.4c-1,3,1.5,5.82,4.76,5.82s5.79-2.81,4.76-5.82A3,3,0,0,0,22,4.78Z"/><path fill="#30acc2" d="M21,7a1,1,0,0,1-2,0A1,1,0,0,1,21,7Z"/><path fill="#30acc2" d="M25,7a1,1,0,0,1-2,0A1,1,0,0,1,25,7Z"/></svg>