<svg xmlns="http://www.w3.org/2000/svg"  viewBox="0 0 48 48" width="96px" height="96px" baseProfile="basic"><linearGradient id="l3jiJRE3DfHzCgb_oqy9Fa" x1="26.297" x2="47.157" y1="12.256" y2="69.364" gradientUnits="userSpaceOnUse"><stop offset="0" stop-color="#ebc70f"/><stop offset=".353" stop-color="#eac30e"/><stop offset=".668" stop-color="#e8b90b"/><stop offset=".967" stop-color="#e4a606"/><stop offset="1" stop-color="#e3a405"/></linearGradient><path fill="url(#l3jiJRE3DfHzCgb_oqy9Fa)" d="M31.5,41c-0.651,0-1.229-0.421-1.428-1.041l-2.927-9.104l-9.104-2.927	C17.421,27.729,17,27.151,17,26.5s0.421-1.229,1.041-1.428l9.104-2.927l2.927-9.104C30.271,12.421,30.849,12,31.5,12	c0.651,0,1.229,0.421,1.428,1.041l2.927,9.104l9.104,2.927C45.579,25.271,46,25.849,46,26.5s-0.421,1.229-1.041,1.428l-9.104,2.927	l-2.927,9.104C32.729,40.579,32.151,41,31.5,41z"/><linearGradient id="l3jiJRE3DfHzCgb_oqy9Fb" x1="8.401" x2="22.83" y1="3.147" y2="42.651" gradientUnits="userSpaceOnUse"><stop offset="0" stop-color="#ebc70f"/><stop offset=".353" stop-color="#eac30e"/><stop offset=".668" stop-color="#e8b90b"/><stop offset=".967" stop-color="#e4a606"/><stop offset="1" stop-color="#e3a405"/></linearGradient><path fill="url(#l3jiJRE3DfHzCgb_oqy9Fb)" d="M12,23c-0.646,0-1.219-0.413-1.423-1.025l-1.888-5.664l-5.664-1.888	C2.413,14.219,2,13.646,2,13s0.413-1.219,1.025-1.423l5.664-1.888l1.888-5.664C10.781,3.413,11.354,3,12,3s1.219,0.413,1.423,1.025	l1.888,5.664l5.664,1.888C21.587,11.781,22,12.354,22,13s-0.413,1.219-1.025,1.423l-5.664,1.888l-1.888,5.664	C13.219,22.587,12.646,23,12,23z"/><linearGradient id="l3jiJRE3DfHzCgb_oqy9Fc" x1="7.436" x2="19.721" y1="28.111" y2="61.746" gradientUnits="userSpaceOnUse"><stop offset="0" stop-color="#ebc70f"/><stop offset=".353" stop-color="#eac30e"/><stop offset=".668" stop-color="#e8b90b"/><stop offset=".967" stop-color="#e4a606"/><stop offset="1" stop-color="#e3a405"/></linearGradient><path fill="url(#l3jiJRE3DfHzCgb_oqy9Fc)" d="M10.5,45c-0.646,0-1.219-0.413-1.423-1.025l-1.514-4.539l-4.538-1.513	C2.413,37.719,2,37.146,2,36.5s0.413-1.219,1.025-1.423l4.538-1.513l1.514-4.539C9.281,28.413,9.854,28,10.5,28l0,0	c0.646,0,1.219,0.413,1.423,1.025l1.513,4.539l4.539,1.513C18.587,35.281,19,35.854,19,36.5s-0.413,1.219-1.025,1.423l-4.539,1.513	l-1.513,4.539C11.719,44.587,11.146,45,10.5,45z"/><path fill="#fee119" d="M10.5,36.5V45c-0.65,0-1.22-0.41-1.42-1.03l-1.52-4.53l-4.54-1.52C2.41,37.72,2,37.15,2,36.5H10.5z"/><path fill="#fee119" d="M19,36.5h-8.5V28c0.65,0,1.22,0.41,1.42,1.02l1.52,4.54l4.54,1.52C18.59,35.28,19,35.85,19,36.5z"/><path fill="#fee119" d="M31.5,26.5V41c-0.65,0-1.23-0.42-1.43-1.04l-2.92-9.11l-9.11-2.92C17.42,27.73,17,27.15,17,26.5H31.5	z"/><path fill="#fee119" d="M46,26.5H31.5V12c0.65,0,1.23,0.42,1.43,1.04l2.93,9.1l9.1,2.93C45.58,25.27,46,25.85,46,26.5z"/><path fill="#fee119" d="M12,13v10c-0.65,0-1.22-0.41-1.42-1.03l-1.89-5.66l-5.67-1.89C2.41,14.22,2,13.65,2,13H12z"/><path fill="#fee119" d="M22,13H12V3c0.65,0,1.22,0.41,1.42,1.02l1.89,5.67l5.67,1.89C21.59,11.78,22,12.35,22,13z"/></svg>